<svg width="17" height="18" viewBox="0 0 17 18" fill="none" xmlns="http://www.w3.org/2000/svg">
<path d="M15.7261 15.9335C15.7261 16.2164 15.6152 16.4877 15.418 16.6877C15.2207 16.8877 14.9532 17.0001 14.6742 17.0001L2.05186 17.0001C1.77289 17.0001 1.50535 16.8877 1.30808 16.6877C1.11082 16.4877 1 16.2164 1 15.9335L1 2.06679C1 1.78389 1.11082 1.51258 1.30808 1.31254C1.50535 1.1125 1.77289 1.00012 2.05186 1.00012L12.5705 1.00012C12.8443 1.00052 13.1072 1.1092 13.3033 1.30306L15.407 3.35319C15.5074 3.45247 15.5873 3.57112 15.6418 3.70216C15.6964 3.8332 15.7246 3.97397 15.7247 4.11621L15.7261 15.9335Z" stroke="white" stroke-linecap="round" stroke-linejoin="round"/>
<path d="M4.15649 5.80139L4.15649 13.8014L12.5714 13.8014" stroke="white" stroke-linecap="round" stroke-linejoin="round"/>
<path d="M4.15649 11.6674L6.51407 9.43595C6.76845 9.20154 7.09984 9.07167 7.44356 9.07167C7.78728 9.07167 8.11867 9.20154 8.37306 9.43595L8.88216 9.91808C9.02796 10.0535 9.20087 10.1553 9.38906 10.2167C9.57726 10.278 9.7763 10.2975 9.97259 10.2736C10.167 10.2531 10.3546 10.1891 10.5218 10.0863C10.689 9.98351 10.8317 9.84447 10.9396 9.67915L12.0419 7.93408" stroke="white" stroke-linecap="round" stroke-linejoin="round"/>
</svg>
