<svg width="18" height="18" viewBox="0 0 18 18" fill="none" xmlns="http://www.w3.org/2000/svg">
<path d="M1 16.5245L17.0215 16.5245" stroke="#B7B7B7" stroke-linecap="round" stroke-linejoin="round"/>
<path d="M4.25985 8.58179L2.12365 8.58179C1.98201 8.58179 1.84617 8.63884 1.74602 8.74041C1.64587 8.84197 1.5896 8.97972 1.5896 9.12335L1.5896 16.5248L4.79389 16.5248L4.79389 9.12335C4.79389 8.97972 4.73763 8.84197 4.63748 8.74041C4.53732 8.63884 4.40148 8.58179 4.25985 8.58179Z" stroke="#B7B7B7" stroke-linecap="round" stroke-linejoin="round"/>
<path d="M10.0799 1.00012L7.94372 1.00012C7.80208 1.00012 7.66624 1.05718 7.56609 1.15874C7.46593 1.26031 7.40967 1.39806 7.40967 1.54169L7.40967 16.525L10.614 16.525L10.614 1.54169C10.614 1.39806 10.5577 1.26031 10.4575 1.15874C10.3574 1.05718 10.2216 1.00012 10.0799 1.00012Z" stroke="#B7B7B7" stroke-linecap="round" stroke-linejoin="round"/>
<path d="M15.8978 4.24963L13.7616 4.24963C13.6199 4.24963 13.4841 4.30669 13.384 4.40826C13.2838 4.50982 13.2275 4.64757 13.2275 4.7912L13.2275 16.5251L16.4318 16.5251L16.4318 4.7912C16.4318 4.64757 16.3756 4.50982 16.2754 4.40826C16.1753 4.30669 16.0394 4.24963 15.8978 4.24963Z" stroke="#B7B7B7" stroke-linecap="round" stroke-linejoin="round"/>
</svg>
