<svg width="16" height="16" viewBox="0 0 16 16" fill="none" xmlns="http://www.w3.org/2000/svg">
<path d="M1 4.5779H5.30777M1 12.0446H5.30777M8.53834 3.80012H11.0512M8.53834 6.60012H11.0512M8.53834 9.40012H11.0512M8.53834 12.2001H11.0512M3.15389 15.0001C2.58264 15.0001 2.03479 14.8035 1.63086 14.4534C1.22693 14.1033 1 13.6285 1 13.1335V4.59657C1.00091 4.30696 1.07957 4.02151 1.22975 3.76279L2.66567 1.2739C2.71051 1.19665 2.77924 1.13172 2.86417 1.08635C2.94911 1.04098 3.04693 1.01695 3.14671 1.01695C3.24648 1.01695 3.3443 1.04098 3.42924 1.08635C3.51418 1.13172 3.5829 1.19665 3.62774 1.2739L5.06367 3.76279C5.21384 4.02151 5.2925 4.30696 5.29341 4.59657V13.1335C5.29343 13.6264 5.06847 14.0993 4.66764 14.449C4.26681 14.7987 3.72264 14.9968 3.15389 15.0001ZM9.61528 1.00012H13.9231C14.5178 1.00012 15 1.41799 15 1.93346V14.0668C15 14.5823 14.5178 15.0001 13.9231 15.0001H9.61528C9.0205 15.0001 8.53834 14.5823 8.53834 14.0668V1.93346C8.53834 1.41799 9.0205 1.00012 9.61528 1.00012Z" stroke="#B7B7B7" stroke-linecap="round" stroke-linejoin="round"/>
</svg>
